<?xml version="1.0" standalone="no"?>
<!DOCTYPE svg PUBLIC "-//W3C//DTD SVG 20010904//EN"
 "http://www.w3.org/TR/2001/REC-SVG-20010904/DTD/svg10.dtd">
<svg version="1.0" xmlns="http://www.w3.org/2000/svg"
 width="1290.000000pt" height="1290.000000pt" viewBox="0 0 1290.000000 1290.000000"
 preserveAspectRatio="xMidYMid meet">
<metadata>
Created by potrace 1.11, written by Peter Selinger 2001-2013
</metadata>
<g transform="translate(0.000000,1290.000000) scale(0.100000,-0.100000)"
fill="#000000" stroke="none">
<path d="M3415 12815 c-226 -42 -416 -186 -515 -390 -56 -116 -73 -191 -73
-320 0 -129 17 -204 73 -320 88 -181 241 -310 445 -375 55 -17 103 -23 223
-27 l152 -6 0 -1646 0 -1646 -1650 -2279 c-908 -1254 -1670 -2314 -1694 -2355
-157 -274 -263 -561 -311 -851 -26 -152 -31 -439 -10 -600 90 -711 514 -1304
1160 -1620 221 -108 436 -175 697 -217 108 -17 310 -18 4543 -18 4215 0 4436
1 4545 18 63 10 171 32 240 48 1229 300 1914 1520 1529 2725 -59 184 -152 391
-246 544 -22 36 -779 1085 -1681 2332 l-1642 2268 0 1650 0 1650 114 0 c255 0
431 71 585 236 73 78 126 168 163 279 20 61 23 89 22 215 0 129 -3 153 -26
217 -41 116 -95 202 -177 284 -117 116 -245 183 -402 208 -103 17 -5973 13
-6064 -4z m3995 -3553 l0 -1749 1802 -2489 c1054 -1457 1813 -2514 1830 -2550
126 -268 23 -482 -258 -539 -71 -14 -487 -15 -4364 -13 l-4285 3 -62 21 c-242
83 -311 268 -200 528 12 27 832 1170 1824 2540 l1803 2491 0 1753 0 1752 955
0 955 0 0 -1748z"/>
<path d="M4912 4648 c-21 -29 -80 -111 -132 -183 -52 -71 -98 -134 -102 -140
-77 -97 -1128 -1562 -1128 -1571 0 -12 467 -14 2910 -14 1601 0 2910 3 2910 8
-1 15 -41 71 -714 1000 l-689 952 -1508 0 -1508 0 -39 -52z"/>
</g>
</svg>
